name ./resultDataOpenSim/trcMotMarkerGrf/sub10/grf-04-06.mot
datacolumns 19
datarows 15
range 1.48800000 1.54400000
endheader

                time	     ground_force_vx	     ground_force_vy	     ground_force_vz	     ground_force_px	     ground_force_py	     ground_force_pz	   l_ground_force_vx	   l_ground_force_vy	   l_ground_force_vz	   l_ground_force_px	   l_ground_force_py	   l_ground_force_pz	     ground_torque_x	     ground_torque_y	     ground_torque_z	   l_ground_torque_x	   l_ground_torque_y	   l_ground_torque_z	
          1.48800000	         -9.00009664	        417.93713245	        -23.93097534	          0.74947623	          0.00000000	          0.09338205	          0.00000000	          0.00000000	          0.00000000	          0.00000000	          0.00000000	          0.00000000	          0.00000000	          2.41354791	          0.00000000	          0.00000000	          0.00000000	          0.00000000	
          1.49200000	         -9.63120689	        418.16808677	        -23.76130053	          0.75138641	          0.00000000	          0.09338595	          0.00000000	          0.00000000	          0.00000000	          0.00000000	          0.00000000	          0.00000000	          0.00000000	          2.56290912	          0.00000000	          0.00000000	          0.00000000	          0.00000000	
          1.49600000	        -10.16904362	        418.87784566	        -23.42489399	          0.75320576	          0.00000000	          0.09336060	          0.00000000	          0.00000000	          0.00000000	          0.00000000	          0.00000000	          0.00000000	          0.00000000	          2.70058335	          0.00000000	          0.00000000	          0.00000000	          0.00000000	
          1.50000000	        -10.23099784	        420.02186891	        -22.87866078	          0.75484681	          0.00000000	          0.09332092	          0.00000000	          0.00000000	          0.00000000	          0.00000000	          0.00000000	          0.00000000	          0.00000000	          2.80926651	          0.00000000	          0.00000000	          0.00000000	          0.00000000	
          1.50400000	         -9.57091342	        421.55068058	        -22.12866457	          0.75622475	          0.00000000	          0.09327412	          0.00000000	          0.00000000	          0.00000000	          0.00000000	          0.00000000	          0.00000000	          0.00000000	          2.88087666	          0.00000000	          0.00000000	          0.00000000	          0.00000000	
          1.50800000	         -8.13720202	        423.42092748	        -21.23295739	          0.75731054	          0.00000000	          0.09323268	          0.00000000	          0.00000000	          0.00000000	          0.00000000	          0.00000000	          0.00000000	          0.00000000	          2.91886682	          0.00000000	          0.00000000	          0.00000000	          0.00000000	
          1.51200000	         -6.06906804	        425.61449811	        -20.29482744	          0.75813983	          0.00000000	          0.09321342	          0.00000000	          0.00000000	          0.00000000	          0.00000000	          0.00000000	          0.00000000	          0.00000000	          2.93684075	          0.00000000	          0.00000000	          0.00000000	          0.00000000	
          1.51600000	         -3.64213533	        428.13898942	        -19.44704796	          0.75879750	          0.00000000	          0.09322300	          0.00000000	          0.00000000	          0.00000000	          0.00000000	          0.00000000	          0.00000000	          0.00000000	          2.95417619	          0.00000000	          0.00000000	          0.00000000	          0.00000000	
          1.52000000	         -1.18146675	        431.01491184	        -18.82735618	          0.75937482	          0.00000000	          0.09326457	          0.00000000	          0.00000000	          0.00000000	          0.00000000	          0.00000000	          0.00000000	          0.00000000	          2.99037147	          0.00000000	          0.00000000	          0.00000000	          0.00000000	
          1.52400000	          1.03487230	        434.26831925	        -18.54579757	          0.75994082	          0.00000000	          0.09333335	          0.00000000	          0.00000000	          0.00000000	          0.00000000	          0.00000000	          0.00000000	          0.00000000	          3.05989887	          0.00000000	          0.00000000	          0.00000000	          0.00000000	
          1.52800000	          2.85027778	        437.92034247	        -18.65448908	          0.76052542	          0.00000000	          0.09342052	          0.00000000	          0.00000000	          0.00000000	          0.00000000	          0.00000000	          0.00000000	          0.00000000	          3.16875815	          0.00000000	          0.00000000	          0.00000000	          0.00000000	
          1.53200000	          4.26027619	        441.97622806	        -19.13390456	          0.76113980	          0.00000000	          0.09351483	          0.00000000	          0.00000000	          0.00000000	          0.00000000	          0.00000000	          0.00000000	          0.00000000	          3.31319506	          0.00000000	          0.00000000	          0.00000000	          0.00000000	
          1.53600000	          5.39897107	        446.42697897	        -19.90018152	          0.76177645	          0.00000000	          0.09360098	          0.00000000	          0.00000000	          0.00000000	          0.00000000	          0.00000000	          0.00000000	          0.00000000	          3.48055855	          0.00000000	          0.00000000	          0.00000000	          0.00000000	
          1.54000000	          6.49403939	        451.25673413	        -20.82909071	          0.76241513	          0.00000000	          0.09366613	          0.00000000	          0.00000000	          0.00000000	          0.00000000	          0.00000000	          0.00000000	          0.00000000	          3.65205476	          0.00000000	          0.00000000	          0.00000000	          0.00000000	
          1.54400000	          7.79986491	        456.45041132	        -21.78784719	          0.76302769	          0.00000000	          0.09370466	          0.00000000	          0.00000000	          0.00000000	          0.00000000	          0.00000000	          0.00000000	          0.00000000	          3.80697707	          0.00000000	          0.00000000	          0.00000000	          0.00000000	
